# xmcd
#
# Track frame offsets:
#	150
#	15565
#	32354
#	47928
#	65970
#
# Disc length: 1116 seconds
#
# Revision: 1
# Processed by: cddbd v1.5.1PL0 Copyright (c) Steve Scherf et al.
# Submitted via: audiograbber 1.83.01
#
DISCID=3d045a05
DTITLE=N Jay - Baby Girl Singal
DYEAR=2003
DGENRE=Slow Jam
TTITLE0=Baby Girl (Album Version)
TTITLE1=Baby Girl (Instrumental)
TTITLE2=Baby Girl (Accapella)
TTITLE3=Baby Girl (Pop Remix Version)
TTITLE4=Baby Girl (pop Remix Instrumental)
EXTD=
EXTT0=
EXTT1=
EXTT2=
EXTT3=
EXTT4=
PLAYORDER=
